# xmcd
#
# Track frame offsets:
#	150
#	19129
#	34995
#	48922
#	60694
#	72043
#	88948
#	99018
#	119201
#	132853
#	150271
#	165143
#	183823
#	198959
#	211109
#	225076
#	242295
#	256079
#	282545
#	300682
#
# Disc length: 4166 seconds
#
# Revision: 1
# Processed by: cddbd v1.4PL0 Copyright (c) Steve Scherf et al.
# Submitted via: audiograbber 1.80
#
DISCID=f6104414
DTITLE=Kdo ma cas - Kdyz se muzi nelouci
DYEAR=1900
DGENRE=
TTITLE0=Jdem zpatky do lesu (Z raje)
TTITLE1=Zatoka
TTITLE2=Patrik
TTITLE3=Karavana
TTITLE4=Toulam se (Do rana toulam)
TTITLE5=Bible
TTITLE6=Pet strun
TTITLE7=Sbohem rict neumel
TTITLE8=Hopsinky
TTITLE9=Zlata reka
TTITLE10=Jessie James
TTITLE11=Vlastovky
TTITLE12=Bida s nouzi (Tata muj)
TTITLE13=Spravnej chlap
TTITLE14=Kdyz se muzi louci
TTITLE15=Zradny banjo
TTITLE16=Ypsilon
TTITLE17=O posledni pranici and Waterllo
TTITLE18=Hraz
TTITLE19=Rovnou
EXTD=
EXTT0=
EXTT1=
EXTT2=
EXTT3=
EXTT4=
EXTT5=
EXTT6=
EXTT7=
EXTT8=
EXTT9=
EXTT10=
EXTT11=
EXTT12=
EXTT13=
EXTT14=
EXTT15=
EXTT16=
EXTT17=
EXTT18=
EXTT19=
PLAYORDER=
